<svg xmlns="http://www.w3.org/2000/svg" width="56" height="56" fill="none" viewBox="0 0 56 56"><path fill="#98c8f3" d="M25.653 8.909c-.557.57-1.792.395-3.24-.46-1.448-.856-2.889-2.261-3.78-3.687-.892-1.427-1.098-2.657-.542-3.228.557-.57 1.792-.395 3.24.46 1.448.856 2.889 2.262 3.781 3.688.891 1.426 1.098 2.656.54 3.227m3.313 5.442c-.162.78-1.297 1.296-2.979 1.353-1.68.058-3.651-.352-5.17-1.075s-2.354-1.65-2.192-2.43c.163-.78 1.298-1.297 2.98-1.354 1.68-.058 3.651.352 5.17 1.075 1.519.724 2.354 1.65 2.191 2.43m3.827-6.113c-.14 1.881-.694 3.589-1.452 4.478-.759.89-1.607.827-2.225-.165s-.914-2.763-.774-4.644.694-3.589 1.452-4.479c.759-.89 1.607-.826 2.226.166.618.992.913 2.762.773 4.644m-.106 13.697c-.275.748-1.474 1.092-3.145.902-1.672-.189-3.561-.884-4.957-1.822s-2.087-1.976-1.811-2.724c.275-.749 1.473-1.093 3.145-.903 1.67.189 3.56.884 4.956 1.822 1.396.937 2.087 1.976 1.812 2.724m4.663-5.415c-.64 2.845-2.135 4.933-3.337 4.663-1.202-.271-1.657-2.797-1.017-5.642s2.135-4.933 3.337-4.663 1.657 2.797 1.017 5.642m-4.642 14.448c-.517.607-1.761.515-3.264-.242s-3.034-2.062-4.019-3.426c-.985-1.363-1.273-2.577-.755-3.183.517-.608 1.76-.515 3.263.241 1.502.757 3.034 2.063 4.019 3.427s1.273 2.577.756 3.183m6.258-3.462c-1.587 2.447-3.71 3.888-4.745 3.218-1.034-.67-.586-3.198 1-5.646 1.587-2.447 3.71-3.888 4.745-3.217 1.034.67.587 3.198-1 5.645m-8.98 12.076c-.693.394-1.831-.116-2.986-1.34-1.154-1.222-2.15-2.972-2.611-4.589s-.32-2.856.373-3.25 1.83.115 2.985 1.338 2.15 2.973 2.612 4.59c.462 1.618.32 2.857-.373 3.25m7.079-1.178c-2.325 1.761-4.813 2.392-5.557 1.41s.537-3.206 2.863-4.967c2.324-1.762 4.813-2.393 5.556-1.41.745.982-.537 3.206-2.862 4.967m-13.044 8.45c-1.224.141-2.487-2.093-2.82-4.99s.389-5.361 1.613-5.502c1.224-.14 2.487 2.094 2.82 4.991.333 2.898-.389 5.36-1.613 5.502m6.933 1.784c-2.83.71-5.366.314-5.665-.881s1.751-2.739 4.58-3.448c2.83-.708 5.366-.313 5.666.882.299 1.195-1.752 2.739-4.581 3.447M19.99 46.561c-.33 2.898-1.591 5.134-2.816 4.995s-1.949-2.603-1.618-5.5c.33-2.898 1.591-5.134 2.816-4.994s1.949 2.602 1.618 5.5m3.54 8.234c-1.887.032-3.637-.362-4.593-1.037-.955-.674-.97-1.524-.038-2.231s2.668-1.162 4.554-1.194 3.638.362 4.593 1.037c.956.673.97 1.524.038 2.23-.931.707-2.667 1.162-4.554 1.195"/></svg>