<svg xmlns="http://www.w3.org/2000/svg" width="56" height="56" fill="none" viewBox="0 0 56 56"><path fill="#98c8f3" d="M30.347 8.909c.557.57 1.792.395 3.24-.46 1.448-.856 2.89-2.261 3.781-3.687.892-1.427 1.098-2.657.54-3.228-.556-.57-1.79-.395-3.239.46-1.448.856-2.889 2.262-3.78 3.688-.892 1.426-1.098 2.656-.542 3.227m-3.313 5.442c.162.78 1.297 1.296 2.979 1.353 1.68.058 3.652-.352 5.17-1.075 1.519-.723 2.354-1.65 2.192-2.43-.163-.78-1.298-1.297-2.98-1.354-1.68-.058-3.651.352-5.17 1.075-1.519.724-2.354 1.65-2.191 2.43m-3.827-6.113c.14 1.881.694 3.589 1.452 4.478.759.89 1.607.827 2.226-.165.618-.992.913-2.763.773-4.644s-.694-3.589-1.452-4.479c-.759-.89-1.607-.826-2.225.166s-.914 2.762-.774 4.644m.106 13.697c.275.748 1.474 1.092 3.145.902 1.672-.189 3.561-.884 4.957-1.822 1.397-.938 2.087-1.976 1.812-2.724s-1.474-1.093-3.145-.903-3.562.884-4.957 1.822c-1.396.937-2.087 1.976-1.812 2.724M18.65 16.52c.64 2.845 2.135 4.933 3.337 4.663 1.202-.271 1.657-2.797 1.017-5.642s-2.135-4.933-3.337-4.663-1.657 2.797-1.017 5.642m4.643 14.448c.516.607 1.76.515 3.263-.242s3.034-2.062 4.019-3.426c.985-1.363 1.273-2.577.756-3.183-.518-.608-1.761-.515-3.264.241-1.502.757-3.034 2.063-4.019 3.427s-1.273 2.577-.755 3.183m-6.259-3.462c1.587 2.447 3.71 3.888 4.745 3.218 1.034-.67.586-3.198-1-5.646s-3.71-3.888-4.744-3.217c-1.035.67-.587 3.198 1 5.645m8.98 12.076c.693.394 1.831-.116 2.986-1.34 1.154-1.222 2.15-2.972 2.612-4.589.461-1.617.319-2.856-.374-3.25s-1.83.115-2.985 1.338-2.15 2.973-2.612 4.59c-.462 1.618-.32 2.857.373 3.25m-7.079-1.178c2.325 1.761 4.813 2.392 5.557 1.41s-.537-3.206-2.863-4.967c-2.324-1.762-4.812-2.393-5.556-1.41-.745.982.537 3.206 2.862 4.967m13.044 8.45c1.225.141 2.487-2.093 2.82-4.99s-.388-5.361-1.613-5.502c-1.224-.14-2.487 2.094-2.82 4.991-.333 2.898.389 5.36 1.613 5.502m-6.933 1.784c2.83.71 5.366.314 5.665-.881s-1.751-2.739-4.58-3.448c-2.83-.708-5.366-.313-5.666.882-.298 1.195 1.752 2.739 4.581 3.447m10.963-2.077c.33 2.898 1.591 5.134 2.816 4.995s1.949-2.603 1.618-5.5c-.33-2.898-1.591-5.134-2.816-4.994s-1.949 2.602-1.618 5.5m-3.54 8.234c1.887.032 3.637-.362 4.593-1.037.955-.674.97-1.524.038-2.231s-2.668-1.162-4.554-1.194-3.638.362-4.593 1.037c-.955.673-.97 1.524-.038 2.23.932.707 2.667 1.162 4.554 1.195"/></svg>