<svg xmlns="http://www.w3.org/2000/svg" width="33" height="29" fill="none" viewBox="0 0 33 29"><g fill="#292a2b" clip-path="url(#a)"><path d="m17.602 10.683-1.927.152-.124 5.517 1.913-.097z"/><path d="M15.939 23.864c0-.083-.014-.235-.138-.873a7.5 7.5 0 0 1-.111-1.386c.014-.499.166-1.678.457-3.507l.042-.236-.735-.249-.083.277c-.277.902-.513 1.65-.735 2.26-.166.443-.277.748-.346.914a3.6 3.6 0 0 1-.319-.485c-.263-.457-.485-1.233-.65-2.342-.181-1.123-.25-2.48-.223-4.02a85 85 0 0 1 .222-4.782c.665-.263.957-.513.957-.818 0-.221-.153-.472-.943-.998-.79-.527-.956-.582-1.108-.582-.167.014-.319.138-.43.346l-.472.818-6.265.582a7.4 7.4 0 0 0-1.884-.693l-.333-.083v.36a90 90 0 0 1 .097 5.628c-.028 2.66-.277 4.768-.72 6.25a12.5 12.5 0 0 1-2.08 4.076l-.125.166-.014.014.527.762.235-.235c1.289-1.248 2.217-2.454 2.772-3.59a11.7 11.7 0 0 0 1.08-3.798c.153-1.33.278-3.895.361-7.65l6.39-.583a144 144 0 0 0-.167 4.782c-.028 1.65.042 3.16.222 4.505.18 1.358.471 2.467.873 3.284.416.846.956 1.47 1.607 1.885.874.54 1.22.61 1.414.61.375 0 .624-.235.624-.61z"/><path d="M9.647 14.855a26 26 0 0 0-.347-2.523l-.069-.305-1.704.582.042.235c.11.568.208 1.22.263 1.858a3.15 3.15 0 0 0-1.386.638c-.956.748-1.538 2.065-1.4 3.201.111.901.624 1.552 1.428 1.775.235.069.472.097.693.097l.028.014h.097a1.98 1.98 0 0 0 1.441-.68c.513-.581.832-1.51.929-2.771.055.028.414.262.415.263l.957-1.663-.222-.138a4.6 4.6 0 0 0-1.164-.582zM7.485 18.43c-.042.042-.097.097-.25.097a1 1 0 0 1-.277-.041c-.125-.041-.18-.083-.208-.277-.042-.319.138-.957.65-1.358.153-.111.305-.195.485-.25H7.9c-.042 1.22-.277 1.664-.415 1.83zM29.37 9.865c-.93-.499-1.137-.555-1.29-.555-.138 0-.318.083-.471.347l-.402.776-5.447.512a15 15 0 0 0-1.968-.79l-.36-.11v.374q0 3.18-.083 6.445c-.055 2.148-.195 3.84-.402 5.003-.208 1.15-.582 2.19-1.122 3.09-.541.902-1.358 1.872-2.44 2.87l-.208.194.014.014.596.638.194-.124c1.746-1.082 3.05-2.218 3.84-3.396.775-1.15 1.274-2.661 1.482-4.49l4.214-.236.069-1.206-4.144.25c.097-1.414.291-5.684.332-7.305l5.461-.499-.111 3.105-3.825.291-.042 2.19 3.784-.263-.277 8.08c-.014.126-.043.18-.043.18s-.113.056-.567.07c-.236 0-.832-.055-2.398-.389l-.291-.055-.152.957.194.083c1.122.471 1.552.748 1.732.915.236.222.402.54.485.97.055.319.263.5.569.5.152 0 .43-.07 1.33-.556.722-.387 1.137-.72 1.303-1.067.167-.319.25-.845.278-1.607l.471-13.376c.68-.43.832-.638.832-.845 0-.235-.167-.458-1.137-.984zm-1.642-5.291a.45.45 0 0 0-.249.102.27.27 0 0 0-.095.199q-.004.117.075.176.078.06.223.042a.53.53 0 0 0 .357-.213.3.3 0 0 0 .06-.16l.003-.124a.8.8 0 0 0-.373-.021z"/><path d="m32.032 6.084.088-5.3c0-.488-.42-.843-.942-.776h-.012L17.203 2.047c-.477.055-.864.476-.864.942v4.99c0 .454.377.797.854.753l.1.732 1.341-.843 12.434-1.584c.521-.045.953-.466.964-.954m-12.117.42-2.062.267.082-2.862.638-.083-.066 2.302 1.424-.185zm2.061-.267-.555.072.008-.272-.016.001a.75.75 0 0 1-.231.25.8.8 0 0 1-.368.134q-.326.043-.518-.15-.194-.192-.183-.601l.035-1.246.607-.079-.032 1.152q-.008.218.063.308.07.09.206.073a.42.42 0 0 0 .288-.173.64.64 0 0 0 .121-.38l.031-1.067.602-.078zm2.363-.305-.606.078.032-1.133q.012-.44-.273-.403a.45.45 0 0 0-.3.184.65.65 0 0 0-.133.395l-.03 1.047-.602.078.059-2.056.559-.073-.008.28.011-.001a.8.8 0 0 1 .251-.252.85.85 0 0 1 .38-.148q.211-.029.371.057a.56.56 0 0 1 .246.267.96.96 0 0 1 .079.443L24.34 5.93zm1.666-.216-.634.083.066-2.302-.83.108.016-.561 2.292-.297-.016.561-.83.108-.065 2.301m2.671-.345-.559.072.008-.284-.016.002a.7.7 0 0 1-.247.26.9.9 0 0 1-.387.14.8.8 0 0 1-.363-.031.48.48 0 0 1-.331-.493.7.7 0 0 1 .26-.541q.253-.216.64-.265a1 1 0 0 1 .43.025l.004-.11q.004-.151-.092-.228a.33.33 0 0 0-.254-.057.8.8 0 0 0-.263.077 1.6 1.6 0 0 0-.27.179l-.27-.292q.153-.155.378-.277.226-.122.508-.158.254-.033.453.036a.6.6 0 0 1 .307.232.7.7 0 0 1 .102.405zm2.312-.3-.606.08.032-1.134q.012-.44-.273-.403a.45.45 0 0 0-.3.183.65.65 0 0 0-.133.396l-.03 1.047-.602.078.059-2.056.559-.073-.008.28.011-.001a.8.8 0 0 1 .252-.252.85.85 0 0 1 .38-.148q.21-.029.37.057a.56.56 0 0 1 .246.266.96.96 0 0 1 .079.444zm.335 7.373-.069 1.69 1.677-.111.056-1.705z"/></g><defs><clipPath id="a"><path fill="#fff" d="M0 0h32.987v28.673H0z"/></clipPath></defs></svg>